<svg xmlns="http://www.w3.org/2000/svg" version="1.1" xmlns:xlink="http://www.w3.org/1999/xlink" xmlns:svgjs="http://svgjs.dev/svgjs" width="1500" height="1500" viewBox="0 0 1500 1500"><g transform="matrix(1,0,0,1,-0.21332335329316265,-0.21332335329350371)"><svg viewBox="0 0 334 334" data-background-color="#ffffff" preserveAspectRatio="xMidYMid meet" height="1500" width="1500" xmlns="http://www.w3.org/2000/svg" xmlns:xlink="http://www.w3.org/1999/xlink"><g id="tight-bounds" transform="matrix(1,0,0,1,0.04749999999998522,0.04750000000001364)"><svg viewBox="0 0 333.90454557049503 333.90454557049503" height="333.90454557049503" width="333.90454557049503"><g><svg></svg></g><g><svg viewBox="0 0 333.90454557049503 333.90454557049503" height="333.90454557049503" width="333.90454557049503"><g><path d="M0 166.952c0-92.205 74.747-166.952 166.952-166.952 92.205 0 166.952 74.747 166.953 166.952 0 92.205-74.747 166.952-166.953 166.953-92.205 0-166.952-74.747-166.952-166.953zM166.952 329.448c89.744 0 162.496-72.752 162.496-162.496 0-89.744-72.752-162.496-162.496-162.496-89.744 0-162.496 72.752-162.496 162.496 0 89.744 72.752 162.496 162.496 162.496z" data-fill-palette-color="tertiary" fill="#4d7e3e" stroke="transparent"></path><ellipse rx="160.27418187383762" ry="160.27418187383762" cx="166.95227278524752" cy="166.95227278524752" fill="#4d7e3e" stroke="transparent" stroke-width="0" fill-opacity="1" data-fill-palette-color="tertiary"></ellipse></g><g transform="matrix(1,0,0,1,83.49198607946646,71.17305217166896)"><svg viewBox="0 0 166.92057341156212 191.55844122715712" height="191.55844122715712" width="166.92057341156212"><g><svg viewBox="0 0 166.92057341156212 191.55844122715712" height="191.55844122715712" width="166.92057341156212"><g><svg viewBox="0 0 213.1584412271571 244.6211266912438" height="191.55844122715712" width="166.92057341156212"><g transform="matrix(1,0,0,1,0,148.17972259388367)"><svg viewBox="0 0 213.1584412271571 96.44140409736013" height="96.44140409736013" width="213.1584412271571"><g id="textblocktransform"><svg viewBox="0 0 213.1584412271571 96.44140409736013" height="96.44140409736013" width="213.1584412271571" id="textblock"><g><svg viewBox="0 0 213.1584412271571 63.10553436745774" height="63.10553436745774" width="213.1584412271571"><g transform="matrix(1,0,0,1,0,0)"><svg width="213.1584412271571" viewBox="4 -35.05 120.24 35.599999999999994" height="63.10553436745774" data-palette-color="#ffffff"><path d="M14.25 0.55L14.25 0.55Q10.7 0.55 4 0L4 0 4.6-12.15 4-34.5 17.35-34.5Q24.1-34.5 27.9-30.45 31.7-26.4 31.7-19.2L31.7-19.2Q31.7-10.1 27-4.78 22.3 0.55 14.25 0.55ZM15.55-29.1L15.55-29.1Q12.25-29.1 10.9-29.05L10.9-29.05 10.4-13 10.75-4.9Q14.95-4.6 16.4-4.6L16.4-4.6Q20.35-4.6 22.63-7.8 24.9-11 24.9-17.1 24.9-23.2 22.68-26.15 20.45-29.1 15.55-29.1ZM37.2-33.5L44.3-34.75 43.6-13 44.2 0 37.2 0 37.8-12.15 37.2-33.5ZM64.35 0.55L64.35 0.55Q57.8 0.55 53.8-3.85 49.8-8.25 49.8-15.5L49.8-15.5Q49.8-23.75 54.8-29.4 59.8-35.05 67.1-35.05L67.1-35.05Q70-35.05 72.47-34.52 74.95-34 76-33.45L76-33.45 77-32.9 74.1-25.95Q72.6-26.95 70.05-27.83 67.5-28.7 65.55-28.7L65.55-28.7Q61.5-28.7 59.05-25.85 56.6-23 56.6-18.3L56.6-18.3Q56.6-11.95 58.92-8.4 61.25-4.85 65.4-4.85L65.4-4.85Q68.1-4.85 70.5-5.6L70.5-5.6 70.5-13.35 64.05-13.35 64.55-18.4 76.55-18.4 76.1-10.25 76.45-1.6Q69.1 0.55 64.35 0.55ZM100.54 0L84.09 0 84.69-12.15 84.09-33.5 91.19-34.75 90.49-13 90.84-4.9 101.09-5.7 100.54 0ZM123.69 0L105.39 0 105.99-12.15 105.39-34.5 124.14-34.5 123.59-29.15 112.34-29.15 112.04-20.3 122.04-20.3 121.49-15 111.84-15 111.79-13 112.14-5.3 124.24-5.3 123.69 0Z" opacity="1" transform="matrix(1,0,0,1,0,0)" fill="#ffffff" class="wordmark-text-0" data-fill-palette-color="quaternary" id="text-0"></path></svg></g></svg></g><g transform="matrix(1,0,0,1,0,78.0032364987897)"><svg viewBox="0 0 213.1584412271571 18.43816759857045" height="18.43816759857045" width="213.1584412271571"><g transform="matrix(1,0,0,1,0,0)"><svg width="213.1584412271571" viewBox="0.68 -39.21 692.57 59.91" height="18.43816759857045" data-palette-color="#ffffff"><path d="M37.26-8.11L37.26-8.11Q39.7-16.02 42.92-37.01L42.92-37.01Q46-37.01 46.14-35.11L46.14-35.11Q46.19-34.52 46.22-34.28 46.24-34.03 46.04-32.59 45.85-31.15 45.48-28.56 45.12-25.98 44.58-22.56 44.04-19.14 43.36-15.43L43.36-15.43Q41.7-6.69 39.94-0.68L39.94-0.68Q38.18 0.54 37.21-0.29L37.21-0.29Q36.77-0.73 36.43-1.49 36.08-2.25 35.64-3.22L35.64-3.22Q35.01-4.05 33.3-7.62 31.59-11.18 30.54-13.28 29.49-15.38 28.52-17.19L28.52-17.19Q26.27-21.24 24.76-21.92L24.76-21.92Q23-19.19 18.51-6.93L18.51-6.93Q17.72-4.79 17.09-2.95 16.46-1.12 16.02 0L16.02 0 12.99-0.15 0.78-28.37Q0.68-28.61 0.68-28.86 0.68-29.1 0.85-29.35 1.03-29.59 1.46-29.79L1.46-29.79Q2.29-30.08 3.13-30.08 3.96-30.08 4.32-29.76 4.69-29.44 4.91-28.96 5.13-28.47 5.27-27.88 5.42-27.29 5.83-26.37 6.25-25.44 7.06-23.63 7.86-21.83 8.79-19.82 9.72-17.82 10.64-15.84 11.57-13.87 12.4-12.21L12.4-12.21Q14.16-8.54 14.6-8.11L14.6-8.11Q20.26-22.07 21.58-24.68 22.9-27.29 23.24-27.88L23.24-27.88Q23.78-28.71 24.07-28.71L24.07-28.71Q26.17-28.71 31.15-19.34L31.15-19.34Q32.52-16.85 33.69-14.55L33.69-14.55Q36.57-8.98 37.26-8.11ZM71.29-0.68L71.29-0.68Q70.85 0.15 69.02 0.15 67.19 0.15 67.19-1.17L67.19-1.17Q67.19-6.93 66.94-9.08L66.94-9.08Q66.5-13.82 65.09-14.16L65.09-14.16Q61.57-14.84 59.35-14.84 57.13-14.84 55.69-13.5 54.25-12.16 53.49-9.06 52.73-5.96 52.39-0.34L52.39-0.34 48.63-0.34Q48.73-3.13 48.73-5.52 48.73-7.91 48.63-11.21 48.53-14.5 48.39-18.41L48.39-18.41Q48.14-22.9 48.14-26 48.14-29.1 48.53-31.69L48.53-31.69Q49.02-32.62 49.95-32.62L49.95-32.62Q51.07-32.62 51.71-31.81 52.34-31.01 52.39-30.37L52.39-30.37 52.15-22.31Q52.15-17.77 52.59-15.53L52.59-15.53Q56.98-18.46 61.67-18.46L61.67-18.46Q63.18-18.46 64.89-18.21L64.89-18.21Q68.55-16.31 69.68-14.16L69.68-14.16Q70.21-13.04 70.36-11.77 70.51-10.5 70.55-8.89L70.55-8.89Q70.85-3.32 71.29-0.68ZM83.05-3.42L83.05-3.42Q87.35-3.42 95.99-7.32L95.99-7.32Q96.53-7.32 96.87-6.96 97.21-6.59 97.21-6.1L97.21-6.1Q95.26-2.78 89.74-0.93 84.22 0.93 79.44-0.29L79.44-0.29Q74.02-1.71 72.85-6.4L72.85-6.4Q72.75-7.32 72.75-8.89 72.75-10.45 73.55-13.01 74.36-15.58 76.31-17.87 78.27-20.17 80.9-21.48 83.54-22.8 86.52-22.8L86.52-22.8Q89.35-22.8 92.87-20.85L92.87-20.85Q94.53-19.92 95.5-18.75 96.48-17.58 96.48-16.36L96.48-16.36Q96.48-16.02 96.43-15.67L96.43-15.67Q96.33-12.7 93.55-11.91L93.55-11.91Q92.33-11.57 90.72-11.57L90.72-11.57 83.69-11.87Q80.17-11.87 78.32-10.35L78.32-10.35Q77.24-9.52 76.8-7.86L76.8-7.86Q78.02-3.42 83.05-3.42ZM91.77-18.51Q90.67-19.29 89.5-19.63 88.33-19.97 87.54-19.97 86.76-19.97 85-19.46 83.25-18.95 81.88-18.31L81.88-18.31Q78.51-16.75 78.51-15.04L78.51-15.04Q82.42-14.7 84.37-14.7L84.37-14.7Q89.79-14.7 91.69-15.63L91.69-15.63Q92.87-16.11 92.87-16.85L92.87-16.85Q92.87-17.72 91.77-18.51ZM124.11-17.82L124.11-17.82Q122.06-19.29 118.84-19.29L118.84-19.29Q115.81-19.29 113.22-18.16L113.22-18.16Q108.34-16.11 106.54-12.89L106.54-12.89Q105.75-11.43 105.75-9.77L105.75-9.77Q105.75-9.47 105.75-8.13 105.75-6.79 106.24-4.52 106.73-2.25 106.73 0.1L106.73 0.1Q105.71 0.15 105.07 0.34 104.44 0.54 104 0.54 103.56 0.54 103.24 0.15 102.92-0.24 102.53-1.37L102.53-1.37Q102.48-1.66 102.34-3.03 102.19-4.39 101.97-6.35 101.75-8.3 101.48-10.62 101.21-12.94 100.97-15.19L100.97-15.19Q100.43-20.07 100.14-22.36L100.14-22.36Q100.14-23.54 101.85-23.54L101.85-23.54Q102.87-23.54 103.46-22.68 104.05-21.83 104.39-20.73 104.73-19.63 104.85-18.55 104.97-17.48 105.07-17.04L105.07-17.04Q111.52-22.8 121.09-22.8L121.09-22.8Q122.16-22.8 123.33-22.75L123.33-22.75Q123.63-22.8 124.06-22.8 124.5-22.8 124.94-22.22L124.94-22.22Q125.48-21.53 125.48-20.56L125.48-20.56Q125.48-18.12 124.11-17.82ZM137.69-3.42L137.69-3.42Q141.98-3.42 150.62-7.32L150.62-7.32Q151.16-7.32 151.5-6.96 151.85-6.59 151.85-6.1L151.85-6.1Q149.89-2.78 144.37-0.93 138.86 0.93 134.07-0.29L134.07-0.29Q128.65-1.71 127.48-6.4L127.48-6.4Q127.38-7.32 127.38-8.89 127.38-10.45 128.19-13.01 128.99-15.58 130.95-17.87 132.9-20.17 135.54-21.48 138.17-22.8 141.15-22.8L141.15-22.8Q143.98-22.8 147.5-20.85L147.5-20.85Q149.16-19.92 150.14-18.75 151.11-17.58 151.11-16.36L151.11-16.36Q151.11-16.02 151.06-15.67L151.06-15.67Q150.97-12.7 148.18-11.91L148.18-11.91Q146.96-11.57 145.35-11.57L145.35-11.57 138.32-11.87Q134.8-11.87 132.95-10.35L132.95-10.35Q131.87-9.52 131.44-7.86L131.44-7.86Q132.66-3.42 137.69-3.42ZM146.4-18.51Q145.3-19.29 144.13-19.63 142.96-19.97 142.18-19.97 141.4-19.97 139.64-19.46 137.88-18.95 136.51-18.31L136.51-18.31Q133.14-16.75 133.14-15.04L133.14-15.04Q137.05-14.7 139-14.7L139-14.7Q144.42-14.7 146.33-15.63L146.33-15.63Q147.5-16.11 147.5-16.85L147.5-16.85Q147.5-17.72 146.4-18.51ZM198.96-27.1L198.96-27.1Q195.79-30.22 191.93-30.22L191.93-30.22Q188.27-30.22 184.9-27.44L184.9-27.44Q180.65-23.93 179.04-18.36L179.04-18.36Q178.45-16.36 178.45-15.04 178.45-13.72 178.55-12.99L178.55-12.99Q178.55-8.15 181.82-5.57L181.82-5.57Q184.9-3.17 189.68-3.17L189.68-3.17Q196.23-3.71 202.23-8.2L202.23-8.2Q203.89-9.47 205.75-10.64L205.75-10.64Q206.43-10.64 207.14-10.45 207.85-10.25 207.85-9.33L207.85-9.33Q203.01-5.13 199.69-3.27L199.69-3.27Q193.54 0.05 188.56 0.05L188.56 0.05Q188.22 0.05 187.92 0.05L187.92 0.05Q182.5 0.05 178.65-3.32L178.65-3.32Q174.55-6.88 174.55-12.21L174.55-12.21Q174.55-16.21 175.99-19.87 177.43-23.54 179.94-26.34 182.46-29.15 185.9-30.81 189.34-32.47 193.3-32.47L193.3-32.47Q196.66-32.47 197.69-31.54L197.69-31.54Q198.96-30.42 198.96-27.1ZM234.16-17.82L234.16-17.82Q232.11-19.29 228.89-19.29L228.89-19.29Q225.86-19.29 223.27-18.16L223.27-18.16Q218.39-16.11 216.58-12.89L216.58-12.89Q215.8-11.43 215.8-9.77L215.8-9.77Q215.8-9.47 215.8-8.13 215.8-6.79 216.29-4.52 216.78-2.25 216.78 0.1L216.78 0.1Q215.75 0.15 215.12 0.34 214.48 0.54 214.05 0.54 213.61 0.54 213.29 0.15 212.97-0.24 212.58-1.37L212.58-1.37Q212.53-1.66 212.38-3.03 212.24-4.39 212.02-6.35 211.8-8.3 211.53-10.62 211.26-12.94 211.02-15.19L211.02-15.19Q210.48-20.07 210.19-22.36L210.19-22.36Q210.19-23.54 211.9-23.54L211.9-23.54Q212.92-23.54 213.51-22.68 214.09-21.83 214.44-20.73 214.78-19.63 214.9-18.55 215.02-17.48 215.12-17.04L215.12-17.04Q221.56-22.8 231.13-22.8L231.13-22.8Q232.21-22.8 233.38-22.75L233.38-22.75Q233.67-22.8 234.11-22.8 234.55-22.8 234.99-22.22L234.99-22.22Q235.53-21.53 235.53-20.56L235.53-20.56Q235.53-18.12 234.16-17.82ZM247.73-3.42L247.73-3.42Q252.03-3.42 260.67-7.32L260.67-7.32Q261.21-7.32 261.55-6.96 261.89-6.59 261.89-6.1L261.89-6.1Q259.94-2.78 254.42-0.93 248.91 0.93 244.12-0.29L244.12-0.29Q238.7-1.71 237.53-6.4L237.53-6.4Q237.43-7.32 237.43-8.89 237.43-10.45 238.24-13.01 239.04-15.58 241-17.87 242.95-20.17 245.59-21.48 248.22-22.8 251.2-22.8L251.2-22.8Q254.03-22.8 257.55-20.85L257.55-20.85Q259.21-19.92 260.19-18.75 261.16-17.58 261.16-16.36L261.16-16.36Q261.16-16.02 261.11-15.67L261.11-15.67Q261.02-12.7 258.23-11.91L258.23-11.91Q257.01-11.57 255.4-11.57L255.4-11.57 248.37-11.87Q244.85-11.87 243-10.35L243-10.35Q241.92-9.52 241.48-7.86L241.48-7.86Q242.7-3.42 247.73-3.42ZM256.45-18.51Q255.35-19.29 254.18-19.63 253.01-19.97 252.23-19.97 251.44-19.97 249.69-19.46 247.93-18.95 246.56-18.31L246.56-18.31Q243.19-16.75 243.19-15.04L243.19-15.04Q247.1-14.7 249.05-14.7L249.05-14.7Q254.47-14.7 256.38-15.63L256.38-15.63Q257.55-16.11 257.55-16.85L257.55-16.85Q257.55-17.72 256.45-18.51ZM284.01-8.11L284.01-8.11Q280.35-2.34 274.25-0.98L274.25-0.98Q272.83-0.68 271.68-0.68 270.53-0.68 269.78-0.71 269.02-0.73 268.09-0.93 267.17-1.12 266.38-1.56L266.38-1.56Q264.58-2.59 264.58-4.44L264.58-4.44Q264.38-5.32 264.38-6.42 264.38-7.52 264.87-9.33 265.36-11.13 266.65-13.23 267.95-15.33 269.8-17.09L269.8-17.09Q273.66-20.8 278.15-21.88L278.15-21.88Q279.47-22.17 280.57-22.17 281.67-22.17 282.55-22.02L282.55-22.02Q285.38-22.02 286.35-18.16L286.35-18.16Q286.99-15.72 287.11-11.35 287.23-6.98 287.36-4.61 287.48-2.25 287.97-0.29L287.97-0.29 285.08-0.29Q284.89-1.61 284.79-2.64 284.69-3.66 284.6-4.54L284.6-4.54Q284.35-6.59 284.01-8.11ZM283.82-15.67L283.82-15.67Q283.82-18.51 281.03-18.51L281.03-18.51Q280.69-18.55 280.35-18.55L280.35-18.55Q276.78-18.55 272.83-15.14L272.83-15.14Q270.97-13.57 269.66-11.62L269.66-11.62Q267.7-8.84 267.7-6.64L267.7-6.64Q267.7-3.76 271.02-3.22L271.02-3.22Q275.42-3.32 279.42-7.23L279.42-7.23Q281.13-8.94 282.25-10.94L282.25-10.94Q283.82-13.62 283.82-15.67ZM297.63-4.69L297.63-4.69 297.73-12.5Q297.73-14.36 297.39-15.67L297.39-15.67 289.82-15.67 289.72-19.04 297.05-19.04 297.05-31.64Q297.19-32.08 297.63-32.52L297.63-32.52Q298.31-33.2 298.78-33.2 299.24-33.2 299.58-33.11 299.93-33.01 300.32-32.42L300.32-32.42Q301.1-29.2 301.1-22.71L301.1-22.71Q301.1-21.09 301.24-19.53L301.24-19.53Q302.81-19.73 304.37-19.73L304.37-19.73Q304.37-19.73 306.91-19.73L306.91-19.73Q307.84-19.73 308.62-19.82L308.62-19.82 308.47-16.31 301.34-16.5 301.59 0.34Q300.71 0.73 300.07 0.73L300.07 0.73Q297.63 0.73 297.63-4.69ZM311.79-22.95L314.87-22.95Q315.5-13.82 315.94-1.81L315.94-1.81Q315.65-0.29 313.6-0.29L313.6-0.29Q313.06-0.29 312.5-0.51 311.94-0.73 311.79-1.12L311.79-1.12 311.79-22.95ZM310.32-29.59L310.32-29.59Q310.32-31.3 312.33-31.3L312.33-31.3Q313.64-31.3 314.47-30.71L314.47-30.71Q314.62-30.18 314.62-29.66 314.62-29.15 314.23-28.66L314.23-28.66Q313.84-28.17 313.06-28.17 312.28-28.17 311.5-28.54 310.71-28.91 310.32-29.59ZM318.48-18.9L318.48-18.9Q318.38-19.14 318.38-19.46 318.38-19.78 318.62-20.31 318.87-20.85 319.33-21.24 319.79-21.63 320.36-21.61 320.92-21.58 321.26-20.9L321.26-20.9 329.46-5.66Q329.85-6.25 330.71-7.84 331.56-9.42 332.66-11.43 333.76-13.43 334.96-15.6 336.15-17.77 337.18-19.58L337.18-19.58Q339.52-23.73 339.96-23.73L339.96-23.73Q340.99-23.73 341.45-22.97 341.91-22.22 341.91-21.83 341.91-21.44 341.91-21.29L341.91-21.29Q339.18-15.33 336.86-10.3 334.54-5.27 333.78-3.78 333.03-2.29 332.44-1.42L332.44-1.42Q331.42 0.1 330.44 0.1 329.46 0.1 328.19-1.44 326.92-2.98 325.31-5.57L325.31-5.57Q322.48-10.25 318.48-18.9ZM345.28-22.95L348.36-22.95Q348.99-13.82 349.43-1.81L349.43-1.81Q349.14-0.29 347.09-0.29L347.09-0.29Q346.55-0.29 345.99-0.51 345.43-0.73 345.28-1.12L345.28-1.12 345.28-22.95ZM343.82-29.59L343.82-29.59Q343.82-31.3 345.82-31.3L345.82-31.3Q347.14-31.3 347.97-30.71L347.97-30.71Q348.11-30.18 348.11-29.66 348.11-29.15 347.72-28.66L347.72-28.66Q347.33-28.17 346.55-28.17 345.77-28.17 344.99-28.54 344.21-28.91 343.82-29.59ZM358.9-4.69L358.9-4.69 359-12.5Q359-14.36 358.66-15.67L358.66-15.67 351.09-15.67 350.99-19.04 358.31-19.04 358.31-31.64Q358.46-32.08 358.9-32.52L358.9-32.52Q359.58-33.2 360.05-33.2 360.51-33.2 360.85-33.11 361.2-33.01 361.59-32.42L361.59-32.42Q362.37-29.2 362.37-22.71L362.37-22.71Q362.37-21.09 362.51-19.53L362.51-19.53Q364.08-19.73 365.64-19.73L365.64-19.73Q365.64-19.73 368.18-19.73L368.18-19.73Q369.11-19.73 369.89-19.82L369.89-19.82 369.74-16.31 362.61-16.5 362.86 0.34Q361.98 0.73 361.34 0.73L361.34 0.73Q358.9 0.73 358.9-4.69ZM396.89-21.19L382.04 18.41Q381.02 20.7 379.6 20.7L379.6 20.7Q378.92 20.7 378.6 20.09 378.28 19.48 378.58 18.65L378.58 18.65Q379.65 14.11 381.68 8.3 383.7 2.49 384.39 0.49L384.39 0.49Q382.68-1.22 379.02-6.35L379.02-6.35Q371.5-16.89 371.5-17.92L371.5-17.92Q371.5-17.97 371.54-18.02L371.54-18.02 373.4-19.87Q377.26-16.31 383.46-7.76L383.46-7.76Q385.02-5.62 385.95-4.15L385.95-4.15Q386.97-6.2 387.56-7.69 388.15-9.18 388.51-10.08 388.88-10.99 389.51-12.5L389.51-12.5Q391.17-16.55 394.1-22.8L394.1-22.8Q394.54-23 395.03-23L395.03-23Q396.25-23 396.79-22.36L396.79-22.36Q396.98-22.12 396.98-21.8 396.98-21.48 396.89-21.19L396.89-21.19ZM423.88-8.15L423.88-8.15 424.08-4.59Q424.08-4.3 424.05-3.52 424.03-2.73 423.47-2.12 422.91-1.51 422.1-1.51 421.3-1.51 420.86-1.56L420.86-1.56Q419.24-1.56 419.24-2.98L419.24-2.98Q419.24-4.15 420.32-12.43 421.39-20.7 421.69-23.1 421.98-25.49 422.2-27.12 422.42-28.76 422.52-29.54 422.61-30.32 422.81-31.1 423-31.88 423.4-32.37L423.4-32.37Q424.13-33.3 426.23-33.3L426.23-33.3Q429.74-31.54 433.45-23.34L433.45-23.34Q436.09-17.48 436.97-15.92 437.85-14.36 438.68-13.77L438.68-13.77 448.44-30.76Q449.47-31.49 450.01-31.49L450.01-31.49Q451.57-31.49 452.4-30.08 453.23-28.66 453.79-26.64 454.35-24.61 454.77-22.17 455.18-19.73 455.5-17.07 455.82-14.4 456.11-11.87L456.11-11.87Q456.79-5.76 457.16-4.2 457.53-2.64 457.53-1.98 457.53-1.32 457.09-0.71 456.65-0.1 455.87-0.1 455.08-0.1 454.3-0.71 453.52-1.32 453.35-2.22 453.18-3.13 453.01-4.59 452.84-6.05 452.59-7.89 452.35-9.72 452.11-11.74 451.86-13.77 451.62-15.63 451.37-17.48 451.18-18.92 450.98-20.36 450.89-21.09L450.89-21.09Q450.89-22.07 450.84-22.9 450.79-23.73 450.45-23.93 450.1-24.12 449.4-23.46 448.69-22.8 447.42-20.8L447.42-20.8Q444.68-16.55 439.51-6.49L439.51-6.49Q438.82-5.27 437.7-5.96L437.7-5.96Q436.38-6.69 435.46-9.72L435.46-9.72 426.47-28.81Q425.3-26.46 424.32-13.28L424.32-13.28Q424.18-11.67 424.13-10.55L424.13-10.55Q423.88-9.33 423.88-8.15ZM470.51-3.42L470.51-3.42Q474.81-3.42 483.45-7.32L483.45-7.32Q483.99-7.32 484.33-6.96 484.67-6.59 484.67-6.1L484.67-6.1Q482.72-2.78 477.2-0.93 471.68 0.93 466.9-0.29L466.9-0.29Q461.48-1.71 460.31-6.4L460.31-6.4Q460.21-7.32 460.21-8.89 460.21-10.45 461.01-13.01 461.82-15.58 463.77-17.87 465.73-20.17 468.36-21.48 471-22.8 473.98-22.8L473.98-22.8Q476.81-22.8 480.33-20.85L480.33-20.85Q481.99-19.92 482.96-18.75 483.94-17.58 483.94-16.36L483.94-16.36Q483.94-16.02 483.89-15.67L483.89-15.67Q483.79-12.7 481.01-11.91L481.01-11.91Q479.79-11.57 478.18-11.57L478.18-11.57 471.15-11.87Q467.63-11.87 465.78-10.35L465.78-10.35Q464.7-9.52 464.26-7.86L464.26-7.86Q465.48-3.42 470.51-3.42ZM479.23-18.51Q478.13-19.29 476.96-19.63 475.79-19.97 475-19.97 474.22-19.97 472.46-19.46 470.71-18.95 469.34-18.31L469.34-18.31Q465.97-16.75 465.97-15.04L465.97-15.04Q469.88-14.7 471.83-14.7L471.83-14.7Q477.25-14.7 479.15-15.63L479.15-15.63Q480.33-16.11 480.33-16.85L480.33-16.85Q480.33-17.72 479.23-18.51ZM497.56-3.42L497.56-3.42Q501.86-3.42 510.5-7.32L510.5-7.32Q511.04-7.32 511.38-6.96 511.72-6.59 511.72-6.1L511.72-6.1Q509.77-2.78 504.25-0.93 498.73 0.93 493.95-0.29L493.95-0.29Q488.53-1.71 487.35-6.4L487.35-6.4Q487.26-7.32 487.26-8.89 487.26-10.45 488.06-13.01 488.87-15.58 490.82-17.87 492.77-20.17 495.41-21.48 498.05-22.8 501.03-22.8L501.03-22.8Q503.86-22.8 507.37-20.85L507.37-20.85Q509.03-19.92 510.01-18.75 510.99-17.58 510.99-16.36L510.99-16.36Q510.99-16.02 510.94-15.67L510.94-15.67Q510.84-12.7 508.06-11.91L508.06-11.91Q506.84-11.57 505.23-11.57L505.23-11.57 498.19-11.87Q494.68-11.87 492.82-10.35L492.82-10.35Q491.75-9.52 491.31-7.86L491.31-7.86Q492.53-3.42 497.56-3.42ZM506.28-18.51Q505.18-19.29 504.01-19.63 502.83-19.97 502.05-19.97 501.27-19.97 499.51-19.46 497.76-18.95 496.39-18.31L496.39-18.31Q493.02-16.75 493.02-15.04L493.02-15.04Q496.93-14.7 498.88-14.7L498.88-14.7Q504.3-14.7 506.2-15.63L506.2-15.63Q507.37-16.11 507.37-16.85L507.37-16.85Q507.37-17.72 506.28-18.51ZM522.02-4.69L522.02-4.69 522.12-12.5Q522.12-14.36 521.78-15.67L521.78-15.67 514.21-15.67 514.11-19.04 521.43-19.04 521.43-31.64Q521.58-32.08 522.02-32.52L522.02-32.52Q522.7-33.2 523.17-33.2 523.63-33.2 523.97-33.11 524.32-33.01 524.71-32.42L524.71-32.42Q525.49-29.2 525.49-22.71L525.49-22.71Q525.49-21.09 525.63-19.53L525.63-19.53Q527.2-19.73 528.76-19.73L528.76-19.73Q528.76-19.73 531.3-19.73L531.3-19.73Q532.23-19.73 533.01-19.82L533.01-19.82 532.86-16.31 525.73-16.5 525.98 0.34Q525.1 0.73 524.46 0.73L524.46 0.73Q522.02 0.73 522.02-4.69ZM551.56-12.6L551.56-12.6Q556.93-12.6 556.93-9.86L556.93-9.86Q556.93-7.81 553.95-5.08L553.95-5.08Q549.51-1.03 541.99 1.42L541.99 1.42Q541.65 1.42 541.23 0.73 540.82 0.05 540.6-0.32 540.38-0.68 540.28-0.78L540.28-0.78Q545.89-2.64 549.51-5.27L549.51-5.27Q551.95-7.03 551.95-8.15 551.95-9.28 549.07-9.28 546.19-9.28 540.62-7.91L540.62-7.91Q538.08-8.01 536.23-9.72L536.23-9.72Q534.62-11.23 534.62-12.77 534.62-14.31 535.49-15.6 536.37-16.89 537.84-18.02 539.3-19.14 541.26-20.07L541.26-20.07Q546.04-22.36 551.17-22.36L551.17-22.36Q552.68-22.36 554.1-22.07L554.1-22.07Q555.27-22.07 555.47-21.04 555.66-20.02 555.66-17.68L555.66-17.68Q552.78-18.99 549.17-18.99L549.17-18.99Q544.67-18.99 541.74-17.19L541.74-17.19Q538.72-15.43 538.62-12.6L538.62-12.6Q538.62-11.23 540.62-11.23L540.62-11.23 544.19-11.62Q548.78-12.6 551.56-12.6ZM604.14-27.1L604.14-27.1Q600.97-30.22 597.11-30.22L597.11-30.22Q593.45-30.22 590.08-27.44L590.08-27.44Q585.83-23.93 584.22-18.36L584.22-18.36Q583.63-16.36 583.63-15.04 583.63-13.72 583.73-12.99L583.73-12.99Q583.73-8.15 587-5.57L587-5.57Q590.08-3.17 594.86-3.17L594.86-3.17Q601.41-3.71 607.41-8.2L607.41-8.2Q609.07-9.47 610.93-10.64L610.93-10.64Q611.61-10.64 612.32-10.45 613.03-10.25 613.03-9.33L613.03-9.33Q608.19-5.13 604.87-3.27L604.87-3.27Q598.72 0.05 593.74 0.05L593.74 0.05Q593.4 0.05 593.11 0.05L593.11 0.05Q587.69 0.05 583.83-3.32L583.83-3.32Q579.73-6.88 579.73-12.21L579.73-12.21Q579.73-16.21 581.17-19.87 582.61-23.54 585.12-26.34 587.64-29.15 591.08-30.81 594.52-32.47 598.48-32.47L598.48-32.47Q601.85-32.47 602.87-31.54L602.87-31.54Q604.14-30.42 604.14-27.1ZM616.59-9.28L616.59-9.28Q616.59-15.04 621.57-18.55L621.57-18.55Q625.53-21.34 631.09-21.92L631.09-21.92Q631.39-21.92 632.46-21.92 633.53-21.92 635.34-21.29L635.34-21.29Q639.34-19.92 640.81-16.46L640.81-16.46Q641.4-15.09 641.4-14.14 641.4-13.18 641.35-12.79L641.35-12.79Q641.35-6.69 636.71-3.17L636.71-3.17Q632.41 0.05 625.97 0.05L625.97 0.05Q621.33 0.05 618.96-2.1 616.59-4.25 616.59-9.28ZM619.96-8.11L619.96-8.11Q619.96-5.08 621.57-4L621.57-4Q622.79-3.22 625.67-3.22 628.55-3.22 630.75-3.66 632.95-4.1 634.66-5.18L634.66-5.18Q638.32-7.52 638.32-12.45L638.32-12.45Q638.32-15.38 636.76-17.24L636.76-17.24Q635.05-19.24 632.26-19.24L632.26-19.24Q630.36-18.9 628.43-18.51 626.5-18.12 624.79-16.99L624.79-16.99Q621.08-14.6 619.96-8.11ZM666.59-39.21Q666.59-34.52 666.32-30.05 666.05-25.59 665.83-21.31 665.61-17.04 665.61-12.23 665.61-7.42 666.29-2.05L666.29-2.05Q666.29-0.93 665.88-0.44 665.46 0.05 664.49 0.05L664.49 0.05Q662.19 0.05 662.19-3.76L662.19-3.76 662.19-5.37Q655.26-0.2 650.47-0.2L650.47-0.2Q648.57-0.2 646.59-1.12 644.62-2.05 642.86-4.88L642.86-4.88Q642.61-6.05 642.61-7.28 642.61-8.5 643.08-10.23 643.54-11.96 644.98-13.82 646.42-15.67 648.47-17.09L648.47-17.09Q652.96-20.12 658.19-20.12L658.19-20.12Q660.44-20.12 662.49-19.43L662.49-19.43Q662.49-20.31 662.61-22.51 662.73-24.71 662.88-27.15L662.88-27.15Q663.17-33.5 663.27-34.64 663.37-35.79 663.54-36.6 663.71-37.4 664.05-37.99L664.05-37.99Q664.78-39.21 666.59-39.21L666.59-39.21ZM646.18-7.67L646.18-7.67Q646.18-3.81 648.96-3.81L648.96-3.81Q649.4-3.81 649.94-3.91L649.94-3.91Q651.94-3.91 654.87-5.08L654.87-5.08Q660.44-7.28 661.66-8.89L661.66-8.89 661.66-15.38Q661.66-17.09 658.87-17.09L658.87-17.09Q658.53-17.14 657.97-17.14 657.41-17.14 656.24-16.89 655.06-16.65 653.6-16.02 652.13-15.38 650.72-14.45L650.72-14.45Q647.74-12.45 646.62-9.77L646.62-9.77Q646.18-8.74 646.18-7.67ZM679.09-3.42L679.09-3.42Q683.38-3.42 692.02-7.32L692.02-7.32Q692.56-7.32 692.9-6.96 693.25-6.59 693.25-6.1L693.25-6.1Q691.29-2.78 685.77-0.93 680.26 0.93 675.47-0.29L675.47-0.29Q670.05-1.71 668.88-6.4L668.88-6.4Q668.78-7.32 668.78-8.89 668.78-10.45 669.59-13.01 670.39-15.58 672.35-17.87 674.3-20.17 676.94-21.48 679.57-22.8 682.55-22.8L682.55-22.8Q685.38-22.8 688.9-20.85L688.9-20.85Q690.56-19.92 691.54-18.75 692.51-17.58 692.51-16.36L692.51-16.36Q692.51-16.02 692.46-15.67L692.46-15.67Q692.37-12.7 689.58-11.91L689.58-11.91Q688.36-11.57 686.75-11.57L686.75-11.57 679.72-11.87Q676.2-11.87 674.35-10.35L674.35-10.35Q673.27-9.52 672.84-7.86L672.84-7.86Q674.06-3.42 679.09-3.42ZM687.8-18.51Q686.7-19.29 685.53-19.63 684.36-19.97 683.58-19.97 682.8-19.97 681.04-19.46 679.28-18.95 677.91-18.31L677.91-18.31Q674.54-16.75 674.54-15.04L674.54-15.04Q678.45-14.7 680.4-14.7L680.4-14.7Q685.82-14.7 687.73-15.63L687.73-15.63Q688.9-16.11 688.9-16.85L688.9-16.85Q688.9-17.72 687.8-18.51Z" opacity="1" transform="matrix(1,0,0,1,0,0)" fill="#ffffff" class="slogan-text-1" data-fill-palette-color="quaternary" id="text-1"></path></svg></g></svg></g></svg></g></svg></g><g transform="matrix(1,0,0,1,46.333859789649765,0)"><svg viewBox="0 0 120.49072164785758 133.2820204625517" height="133.2820204625517" width="120.49072164785758"><g><svg xmlns="http://www.w3.org/2000/svg" xmlns:xlink="http://www.w3.org/1999/xlink" version="1.1" x="0" y="0" viewBox="3.8589018064692286 0.8722542528779003 56.28101225145201 62.25580628916856" enable-background="new 0 0 64 64" xml:space="preserve" height="133.2820204625517" width="120.49072164785758" class="icon-icon-0" data-fill-palette-color="quaternary" id="icon-0"><g fill="#ffffff" data-fill-palette-color="quaternary"><path fill="#ffffff" d="M48.487 20.124A8 8 0 0 0 48.133 19.588C44.503 14.351 38.334 11.113 32.036 11.137 28.297 11.151 24.469 12.369 21.277 14.554 20.963 14.754 20.665 14.978 20.226 15.31 19.911 15.547 19.609 15.808 19.318 16.057L19.139 16.208C18.74 16.554 18.366 16.919 18.093 17.23 17.733 17.589 17.377 17.991 16.968 18.507 16.858 18.639 16.75 18.771 16.6 18.968 16.481 19.142 16.369 19.297 16.299 19.391A2 2 0 0 0 16.076 19.712 4 4 0 0 0 15.805 20.118C13.7 23.323 12.655 26.691 12.702 30.104 12.679 32.751 13.302 35.344 14.59 37.892 14.625 37.973 14.663 38.057 14.737 38.203A26 26 0 0 0 16.507 41.23L16.788 41.63C17.474 42.643 18.141 43.637 18.712 44.585 18.86 44.948 19.016 45.294 19.175 45.649 19.483 46.35 19.752 46.982 19.929 47.614 20.155 48.418 20.278 49.238 20.298 50.036L20.17 52.235 44.714 52.142 44.15 49.911C44.094 49.658 44.184 49.054 44.244 48.657 44.343 48.003 44.512 47.325 44.749 46.63 44.861 46.289 44.992 45.956 45.054 45.778L45.18 45.579C45.35 45.277 45.584 44.863 45.659 44.535 46.217 43.574 46.841 42.633 47.542 41.586L47.879 41.077A27 27 0 0 0 49.781 37.71C51.034 35.137 51.632 32.49 51.557 29.858L51.556 29.599C51.497 26.266 50.456 23.063 48.487 20.124M18.802 21.894L18.933 21.708 19.012 21.58C19.167 21.379 19.312 21.176 19.418 21.021L19.805 20.547C20.037 20.252 20.301 19.954 20.624 19.627 20.862 19.363 21.138 19.094 21.41 18.859L21.596 18.699C21.831 18.495 22.068 18.29 22.473 17.985 22.7 17.813 22.925 17.641 23.202 17.464 25.857 15.644 29 14.636 32.049 14.624 37.217 14.604 42.281 17.268 45.374 21.729L45.528 21.965C47.167 24.418 48.021 27.001 48.066 29.64L48.068 29.918C48.128 32.011 47.647 34.123 46.635 36.206A24 24 0 0 1 44.967 39.156L44.638 39.652C43.876 40.789 43.196 41.818 42.525 43.001L42.396 43.346C42.365 43.469 42.228 43.708 42.156 43.84 42.085 43.945 41.967 44.119 41.9 44.305A18 18 0 0 0 41.442 45.523 15 15 0 0 0 40.721 48.67L23.696 48.735A13.4 13.4 0 0 0 23.286 46.674C23.05 45.829 22.729 45.074 22.363 44.235 22.213 43.903 22.064 43.57 21.923 43.219L21.806 42.983C21.127 41.826 20.411 40.759 19.657 39.644L19.377 39.25A23 23 0 0 1 17.787 36.498L17.664 36.233C16.668 34.267 16.173 32.208 16.19 30.094 16.15 27.354 17.023 24.605 18.802 21.894M16.946 36.598" data-fill-palette-color="quaternary"></path><path fill="#ffffff" d="M39.539 30.044L30.598 44.831C30.479 45.029 30.178 44.918 30.211 44.695L31.632 34.86A0.21 0.21 0 0 0 31.425 34.612L24.924 34.637A0.21 0.21 0 0 1 24.743 34.32L33.684 19.533C33.803 19.335 34.104 19.446 34.071 19.669L32.65 29.504A0.203 0.203 0 0 0 32.857 29.743L39.358 29.718C39.52 29.719 39.624 29.907 39.539 30.044" data-fill-palette-color="quaternary"></path><path fill="#ffffff" d="M19.828 55.454V55.465C19.794 55.956 19.76 56.534 19.834 57.123 20.203 59.543 22.777 59.675 23.616 59.726 24.047 59.735 24.478 59.755 24.909 59.754 26.082 59.76 26.322 59.869 26.732 60.521 27.756 62.142 29.939 63.137 32.454 63.128 34.873 63.119 36.881 62.195 37.893 60.642 38.393 59.866 38.704 59.712 39.913 59.707L40.488 59.705C41.41 59.701 43.302 59.694 44.339 58.414 45.209 57.342 44.953 56.176 44.746 55.359z" data-fill-palette-color="quaternary"></path><g fill="#ffffff" data-fill-palette-color="quaternary"><g fill="#ffffff" data-fill-palette-color="quaternary"><path fill="#ffffff" d="M10.35 23.359A3.304 3.304 0 0 1 6.204 25.55 3.3 3.3 0 0 1 4.244 23.928 3.32 3.32 0 0 1 8.159 19.204 3.327 3.327 0 0 1 10.35 23.359" data-fill-palette-color="quaternary"></path></g></g><g fill="#ffffff" data-fill-palette-color="quaternary"><g fill="#ffffff" data-fill-palette-color="quaternary"><path fill="#ffffff" d="M18.599 11.878A3.26 3.26 0 0 1 16.639 12.534 3.35 3.35 0 0 1 13.955 11.196 3.36 3.36 0 0 1 13.34 8.724 3.33 3.33 0 0 1 14.646 6.543 3.25 3.25 0 0 1 16.563 5.93C17.664 5.926 18.681 6.417 19.29 7.234A3.323 3.323 0 0 1 18.599 11.878" data-fill-palette-color="quaternary"></path></g></g><g fill="#ffffff" data-fill-palette-color="quaternary"><g fill="#ffffff" data-fill-palette-color="quaternary"><path fill="#ffffff" d="M35.352 4.179A3.33 3.33 0 0 1 32.046 7.519 3.32 3.32 0 0 1 28.715 4.213 3.3 3.3 0 0 1 29.67 1.855 3.323 3.323 0 0 1 35.352 4.179" data-fill-palette-color="quaternary"></path></g></g><g fill="#ffffff" data-fill-palette-color="quaternary"><g fill="#ffffff" data-fill-palette-color="quaternary"><path fill="#ffffff" d="M50.104 11.212A3.33 3.33 0 0 1 47.43 12.587 3.26 3.26 0 0 1 45.465 11.946 3.25 3.25 0 0 1 44.143 9.784C44.003 8.906 44.213 8.026 44.731 7.316 45.334 6.486 46.355 5.987 47.456 5.983 48.164 5.98 48.83 6.183 49.369 6.581A3.25 3.25 0 0 1 50.691 8.743 3.28 3.28 0 0 1 50.104 11.212" data-fill-palette-color="quaternary"></path></g></g><g fill="#ffffff" data-fill-palette-color="quaternary"><g fill="#ffffff" data-fill-palette-color="quaternary"><path fill="#ffffff" d="M57.829 25.618A3.3 3.3 0 0 1 56.831 25.775 3.305 3.305 0 0 1 53.657 23.466 3.327 3.327 0 0 1 55.808 19.294C56.14 19.19 56.473 19.138 56.806 19.137A3.3 3.3 0 0 1 59.98 21.446 3.31 3.31 0 0 1 57.829 25.618" data-fill-palette-color="quaternary"></path></g></g></g></svg></g></svg></g><g></g></svg></g></svg></g></svg></g></svg></g><defs></defs></svg><rect width="333.90454557049503" height="333.90454557049503" fill="none" stroke="none" visibility="hidden"></rect></g></svg></g></svg>