<svg width="206" height="75" viewBox="0 0 206 75" fill="none" xmlns="http://www.w3.org/2000/svg">
<path d="M72.3192 22.16C72.3192 21.36 72.5912 20.816 73.1352 20.528C73.7112 20.208 74.4792 20.016 75.4392 19.952C77.6152 19.696 79.3432 19.536 80.6232 19.472C81.9032 19.376 83.0872 19.328 84.1752 19.328C90.7992 19.328 95.8072 20.816 99.1992 23.792C102.591 26.768 104.207 31.568 104.047 38.192C103.855 41.232 103.039 43.872 101.599 46.112C100.159 48.352 98.2872 50.208 95.9832 51.68C93.6792 53.152 91.1512 54.256 88.3992 54.992C85.6472 55.696 82.8632 56.048 80.0472 56.048C79.2152 56.048 78.3672 56.016 77.5032 55.952C76.6712 55.888 75.8712 55.808 75.1032 55.712C74.3352 55.584 73.6472 55.456 73.0392 55.328C72.3352 55.2 71.8392 54.928 71.5512 54.512C71.2952 54.064 71.1672 53.616 71.1672 53.168C71.1672 52.624 71.3272 52.16 71.6472 51.776C71.9672 51.36 72.4792 51.184 73.1832 51.248C73.4392 51.28 73.6792 51.312 73.9032 51.344C74.1592 51.376 74.3992 51.424 74.6232 51.488C74.6552 50.912 74.6712 50.368 74.6712 49.856C74.7032 49.344 74.7192 48.832 74.7192 48.32C74.7512 47.808 74.7672 47.312 74.7672 46.832C74.7672 45.712 74.7352 44.416 74.6712 42.944C74.6392 41.44 74.5752 39.84 74.4792 38.144C74.4152 36.448 74.3512 34.752 74.2872 33.056C74.2232 31.328 74.1912 29.712 74.1912 28.208C74.1912 26.672 74.2232 25.344 74.2872 24.224C73.6472 24.256 73.1512 24.064 72.7992 23.648C72.4792 23.232 72.3192 22.736 72.3192 22.16ZM79.1352 46.544C79.1352 47.12 79.1192 47.696 79.0872 48.272C79.0872 48.848 79.0712 49.44 79.0392 50.048C79.0392 50.624 79.0232 51.232 78.9912 51.872C81.0072 51.968 83.0072 51.856 84.9912 51.536C86.9752 51.216 88.8472 50.672 90.6072 49.904C92.3672 49.136 93.9192 48.16 95.2632 46.976C96.6072 45.76 97.6632 44.32 98.4312 42.656C99.2312 40.992 99.6312 39.104 99.6312 36.992C99.6312 33.632 99.0232 30.96 97.8072 28.976C96.5912 26.992 94.7992 25.584 92.4312 24.752C90.0632 23.888 87.1512 23.456 83.6952 23.456C83.1512 23.456 82.6072 23.472 82.0632 23.504C81.5192 23.504 80.9752 23.52 80.4312 23.552C79.8872 23.584 79.3272 23.632 78.7512 23.696C78.6232 25.904 78.5592 27.776 78.5592 29.312C78.5592 30.816 78.5752 32.16 78.6072 33.344C78.6712 34.528 78.7352 35.712 78.7992 36.896C78.8952 38.08 78.9752 39.44 79.0392 40.976C79.1032 42.48 79.1352 44.336 79.1352 46.544ZM111.26 32.096C111.292 31.424 111.532 30.928 111.98 30.608C112.428 30.288 112.94 30.128 113.516 30.128C113.868 30.128 114.204 30.208 114.524 30.368C114.876 30.496 115.148 30.704 115.34 30.992C115.564 31.28 115.66 31.648 115.628 32.096C115.564 33.312 115.516 34.64 115.484 36.08C115.484 37.52 115.5 38.992 115.532 40.496C115.564 42 115.628 43.472 115.724 44.912C115.82 46.352 115.964 47.68 116.156 48.896C116.316 50.08 116.46 51.104 116.588 51.968C116.748 52.832 116.828 53.536 116.828 54.08C116.828 54.72 116.7 55.264 116.444 55.712C116.188 56.128 115.708 56.336 115.004 56.336C114.62 56.336 114.252 56.272 113.9 56.144C113.58 56.016 113.292 55.696 113.036 55.184C112.748 54.608 112.492 53.712 112.268 52.496C112.044 51.248 111.836 49.824 111.644 48.224C111.484 46.592 111.356 44.928 111.26 43.232C111.196 41.504 111.164 39.872 111.164 38.336C111.164 37.376 111.164 36.512 111.164 35.744C111.196 34.944 111.212 34.24 111.212 33.632C111.244 33.024 111.26 32.512 111.26 32.096ZM110.636 19.808C110.636 19.296 110.78 18.832 111.068 18.416C111.388 18 111.804 17.664 112.316 17.408C112.828 17.12 113.356 16.976 113.9 16.976C114.348 16.976 114.844 17.104 115.388 17.36C115.932 17.584 116.396 17.936 116.78 18.416C117.196 18.864 117.404 19.424 117.404 20.096C117.404 20.576 117.292 21.04 117.068 21.488C116.844 21.904 116.524 22.24 116.108 22.496C115.724 22.752 115.26 22.88 114.716 22.88C114.14 22.88 113.532 22.752 112.892 22.496C112.252 22.24 111.708 21.888 111.26 21.44C110.844 20.96 110.636 20.416 110.636 19.808ZM122.497 44.384C122.497 42.4 122.849 40.528 123.553 38.768C124.257 36.976 125.217 35.408 126.433 34.064C127.649 32.688 129.041 31.616 130.609 30.848C132.209 30.048 133.873 29.648 135.601 29.648C136.401 29.648 137.185 29.744 137.953 29.936C138.721 30.096 139.473 30.384 140.209 30.8C140.369 30.352 140.625 30.064 140.977 29.936C141.329 29.776 141.665 29.696 141.985 29.696C142.625 29.696 143.137 29.84 143.521 30.128C143.937 30.384 144.145 30.832 144.145 31.472V33.2C144.305 33.424 144.417 33.648 144.481 33.872C144.545 34.064 144.577 34.288 144.577 34.544C144.577 35.056 144.417 35.504 144.097 35.888V37.184C144.097 38.4 144.097 39.632 144.097 40.88C144.129 42.096 144.145 43.36 144.145 44.672C144.145 46.4 144.097 48.144 144.001 49.904C143.905 51.664 143.777 53.408 143.617 55.136C143.361 57.952 142.817 60.432 141.985 62.576C141.153 64.72 140.033 66.384 138.625 67.568C137.217 68.784 135.521 69.392 133.537 69.392C132.673 69.392 131.745 69.248 130.753 68.96C129.761 68.704 128.721 68.288 127.633 67.712C126.545 67.168 125.425 66.464 124.273 65.6C123.985 65.376 123.745 65.12 123.553 64.832C123.393 64.544 123.313 64.24 123.313 63.92C123.313 63.6 123.393 63.28 123.553 62.96C123.713 62.64 123.937 62.352 124.225 62.096C124.513 61.872 124.865 61.76 125.281 61.76C125.601 61.76 125.937 61.824 126.289 61.952C126.673 62.112 127.025 62.32 127.345 62.576C127.953 62.992 128.593 63.408 129.265 63.824C129.969 64.272 130.673 64.624 131.377 64.88C132.113 65.168 132.833 65.312 133.537 65.312C134.625 65.312 135.521 64.928 136.225 64.16C136.929 63.392 137.489 62.432 137.905 61.28C138.353 60.128 138.673 58.976 138.865 57.824C139.025 56.864 139.153 56.08 139.249 55.472C139.345 54.832 139.425 54.256 139.489 53.744C139.553 53.2 139.617 52.592 139.681 51.92C138.849 53.424 137.825 54.512 136.609 55.184C135.425 55.856 134.129 56.192 132.721 56.192C130.737 56.192 128.977 55.664 127.441 54.608C125.905 53.52 124.689 52.08 123.793 50.288C122.929 48.496 122.497 46.528 122.497 44.384ZM132.913 52.16C134.097 52.16 135.073 51.808 135.841 51.104C136.641 50.4 137.281 49.392 137.761 48.08C138.273 46.736 138.689 45.152 139.009 43.328C139.073 42.848 139.137 42.192 139.201 41.36C139.265 40.528 139.313 39.664 139.345 38.768C139.409 37.872 139.457 37.088 139.489 36.416C139.521 35.712 139.537 35.264 139.537 35.072C138.929 34.592 138.257 34.24 137.521 34.016C136.785 33.792 136.145 33.68 135.601 33.68C134.417 33.68 133.297 33.968 132.241 34.544C131.217 35.12 130.305 35.92 129.505 36.944C128.705 37.968 128.081 39.136 127.633 40.448C127.185 41.76 126.961 43.136 126.961 44.576C126.961 46.016 127.233 47.312 127.777 48.464C128.321 49.616 129.041 50.528 129.937 51.2C130.865 51.84 131.857 52.16 132.913 52.16ZM153.364 18.416C153.396 17.776 153.62 17.28 154.036 16.928C154.452 16.576 154.98 16.4 155.62 16.4C156.036 16.4 156.404 16.496 156.724 16.688C157.076 16.848 157.348 17.072 157.54 17.36C157.732 17.648 157.812 18 157.78 18.416C157.62 20.88 157.508 23.344 157.444 25.808C157.38 28.272 157.348 30.672 157.348 33.008C157.38 35.312 157.396 37.488 157.396 39.536L157.204 44.96C157.204 47.136 157.156 48.976 157.06 50.48C156.964 51.984 156.788 53.152 156.532 53.984C156.308 54.848 156.02 55.472 155.668 55.856C155.316 56.208 154.884 56.384 154.372 56.384C153.604 56.384 153.028 56.144 152.644 55.664C152.26 55.184 152.132 54.512 152.26 53.648C152.356 53.008 152.436 52.112 152.5 50.96C152.596 49.808 152.676 48.544 152.74 47.168C152.836 45.792 152.9 44.48 152.932 43.232C152.996 41.952 153.028 40.88 153.028 40.016C153.028 36.656 153.028 33.712 153.028 31.184C153.06 28.656 153.092 26.368 153.124 24.32C153.188 22.272 153.268 20.304 153.364 18.416ZM173.949 56C172.189 56 170.621 55.648 169.245 54.944C167.869 54.24 166.701 53.296 165.741 52.112C164.781 50.896 164.045 49.552 163.533 48.08C163.053 46.576 162.813 45.056 162.813 43.52C162.813 41.888 163.133 40.272 163.773 38.672C164.445 37.072 165.357 35.6 166.509 34.256C167.693 32.912 169.053 31.84 170.589 31.04C172.125 30.24 173.773 29.84 175.533 29.84C176.909 29.84 178.109 30.128 179.133 30.704C180.189 31.248 181.005 32 181.581 32.96C182.189 33.92 182.493 35.04 182.493 36.32C182.493 37.664 182.157 38.944 181.485 40.16C180.813 41.344 179.869 42.304 178.653 43.04C177.021 44.16 175.229 44.944 173.277 45.392C171.357 45.808 169.405 46.048 167.421 46.112C167.677 47.04 168.093 47.952 168.669 48.848C169.245 49.744 169.981 50.496 170.877 51.104C171.805 51.68 172.893 51.968 174.141 51.968C175.325 51.968 176.461 51.632 177.549 50.96C178.669 50.256 179.629 49.456 180.429 48.56C180.621 48.304 180.829 48.128 181.053 48.032C181.309 47.936 181.549 47.888 181.773 47.888C182.157 47.888 182.509 47.984 182.829 48.176C183.149 48.368 183.405 48.624 183.597 48.944C183.789 49.264 183.885 49.616 183.885 50C183.917 50.256 183.885 50.512 183.789 50.768C183.693 50.992 183.533 51.216 183.309 51.44C182.125 52.72 180.733 53.808 179.133 54.704C177.565 55.568 175.837 56 173.949 56ZM167.229 42.176C168.509 42.112 169.693 42.016 170.781 41.888C171.869 41.728 173.005 41.408 174.189 40.928C175.245 40.512 176.173 39.92 176.973 39.152C177.773 38.352 178.173 37.392 178.173 36.272C178.173 35.824 178.061 35.424 177.837 35.072C177.645 34.688 177.341 34.384 176.925 34.16C176.541 33.904 176.029 33.776 175.389 33.776C174.365 33.776 173.389 34.032 172.461 34.544C171.533 35.056 170.701 35.728 169.965 36.56C169.229 37.36 168.621 38.256 168.141 39.248C167.693 40.24 167.389 41.216 167.229 42.176Z" fill="black"/>
<rect y="9.33142" width="64.6743" height="56.3372" rx="6" fill="#1A535C"/>
<path d="M25.1278 24.7239C39.3139 21.6577 44.5446 43.7648 52.7292 33.7518C55.5683 37.7144 54.993 37.4121 52.7292 41.5041C40.5394 30.3595 31.7111 53.216 28.872 49.2534C33.6846 32.4151 52.9505 45.0919 25.1278 24.7239Z" fill="white"/>
<circle cx="21.266" cy="37" r="2.96038" fill="white"/>
<circle cx="13.0285" cy="37" r="2.96038" fill="#FDFDFD"/>
</svg>
